<?xml version="1.0" encoding="utf-8"?>
<!-- Generator: Adobe Illustrator 23.1.0, SVG Export Plug-In . SVG Version: 6.00 Build 0)  -->
<svg version="1.1" id="Layer_1" xmlns="http://www.w3.org/2000/svg" xmlns:xlink="http://www.w3.org/1999/xlink" x="0px" y="0px"
	 viewBox="0 0 400 200" style="enable-background:new 0 0 400 200;" xml:space="preserve">
<style type="text/css">
	.st0{font-family:'Allura-Regular';}
	.st1{font-size:169.8717px;}
</style>
<text transform="matrix(1 0 0 1 14.6914 167.5586)" class="st0 st1">Anew</text>
<g>
	<path d="M295.4,109.3c-12.9-8.92-25.94-17.66-38.62-26.85c-4.15-3.01-6.98-3.06-11.14-0.05c-13.44,9.71-27.2,19.01-42.61,29.69
		c16.16-36.19,31.45-70.41,47.5-106.35c15.8,35.32,30.88,69.04,45.97,102.75C296.13,108.76,295.76,109.03,295.4,109.3z"/>
	<path d="M161.37,44.32c18.38,7.36,36.77,14.71,55.97,22.4c-6.02,13.5-11.83,26.53-18.38,41.24
		c-13.43-21.79-25.99-42.17-38.54-62.55C160.74,45.05,161.05,44.69,161.37,44.32z"/>
	<path d="M302.71,107.01c-5.92-13.27-11.17-24.7-15.99-36.29c-0.54-1.31,0.81-4.59,2.12-5.14c16.76-7.03,33.68-13.72,52.46-21.27
		C328.06,65.83,315.85,85.67,302.71,107.01z"/>
	<path d="M282.89,61.51c-7.52-10.81-7.52-10.96-0.16-19.83c4.72-5.68,9.45-11.35,15.99-16.82c0,9.37,0.1,18.75-0.13,28.12
		c-0.03,1.18-1.52,2.82-2.77,3.39C291.57,58.3,287.12,59.86,282.89,61.51z"/>
	<path d="M203.52,23.78c7.24,8.83,14,15.49,18.53,23.32c1.94,3.35-0.76,9.13-1.26,13.04c-2.32,0.5-2.59,0.65-2.78,0.59
		c-14.56-4.59-14.55-4.59-14.49-19.28C203.54,36.18,203.52,30.92,203.52,23.78z"/>
</g>
</svg>
